<?xml version="1.0" standalone="no"?>
<!DOCTYPE svg PUBLIC "-//W3C//DTD SVG 1.1//EN" "http://www.w3.org/Graphics/SVG/1.1/DTD/svg11.dtd" >
<svg xmlns="http://www.w3.org/2000/svg" xmlns:xlink="http://www.w3.org/1999/xlink" version="1.1" viewBox="0 0 256 256">
  <g transform="matrix(1 0 0 -1 0 204)">
   <path fill="currentColor"
d="M118 211q7 -2 13 -6q2 -1 1 -5q-2 -14 -1 -20q1 1 5 3q-1 1 2 3h3q11 0 16 -2q1 0 1 -3q0 -2 -4 -3h-1q-10 -1 -23 -5q-4 -19 -10 -25q14 3 24 4q4 1 6 2q-1 5 2 5q4 0 5 -1q5 -2 13 -4q5 -1 3 -3l-1 -1q0 -3 -3 -1h-7h-12q-17 -3 -64 -14q-4 -2 -7 -1q-10 0 -16 2
q-3 0 -1 1q17 2 40 7l12 3q-1 0 -2 2q-1 1 -1 2q-2 0 0 2q8 4 9 17l-6 -2q-27 -6 -32 -1q-3 1 0 2q13 -1 38 7q3 28 -4 33q-2 3 2 2zM138 133q-2 2 -2 3h4q8 -1 15 -3q5 -2 3 -4q-3 -3 -2 -9q1 0 5 2q5 5 23 2q2 -1 2 -3q0 -1 -2 -1q-14 0 -28 -7q-1 -13 -4 -22q13 2 31 4
q2 4 4 4q11 -2 23 -6q1 -5 -2 -5q-2 0 -8 1q-2 0 -3 1q-7 2 -15 1q-37 -4 -51 -8q-7 -2 -12 0q-2 0 -2 1t2 2q2 -1 10 1q5 0 9 1l6 2v2q2 8 2 19q-1 -1 -2 -1q-13 -3 -21 -1q-6 0 0 2q11 1 19 3l4 2q-1 9 -8 17zM80 132q1 -2 4 -3q3 -3 7 -5q2 -1 1 -5q-2 -3 -1 -9q5 2 8 2
l14 -2q1 0 1 -1v-1q-2 -3 -4 -1q-7 0 -19 -4q-3 -12 -8 -20q16 4 19 6q2 1 5 1h8q3 -3 1 -5q-8 -1 -15 -2q-2 -1 -5 -1q-24 -6 -45 -12q-10 -5 -19 2q-2 0 1 1q7 -2 18 2q4 1 11 2q10 3 17 5q4 6 5 19q-13 -5 -26 -5q-2 1 -3 1q-3 1 0 2q13 1 29 7q2 19 -5 24q-2 4 1 2z
M127 44q0 -2 1 -3l2 -2q3 -4 -1 -5q-10 -7 -7 -34q4 -11 13 -15q31 -14 79 -1q3 2 3 7q-1 4 -3 13q-2 12 -3 16v2q1 1 3 -1q3 -7 8 -19q0 -1 1 -1q0 -1 3 -3l6 -6q3 -1 2 -4q0 -2 -3 -3q-67 -19 -97 -3q-12 6 -15 18q-3 19 5 43q0 2 3 1zM123 59q-17 -24 -26 -40l-12 -18
q-11 -16 -24 -28q-7 -3 -2 2q22 25 61 89q-15 -6 -35 -15q-8 -5 -13 -3q-4 3 -1 11q0 1 1 2q1 0 2 -1q-1 -6 11 -1q10 4 37 12q5 8 9 4q13 3 17 5q4 -1 1 -5q-15 -5 -26 -14z" />
  </g>

</svg>
